<svg>
<symbol viewBox="0 0 10 9" id="header__arrow" xmlns="http://www.w3.org/2000/svg">
<path d="M5.92254 7.53442C5.49466 8.21378 4.50428 8.21378 4.07639 7.53442L0.384211 1.6723C-0.0733378 0.945841 0.448747 -1.92373e-06 1.30729 -1.84868e-06L8.69165 -1.20312e-06C9.55019 -1.12806e-06 10.0723 0.94584 9.61472 1.6723L5.92254 7.53442Z" />
</symbol>

<symbol viewBox="0 0 20 19" id="header__tel" xmlns="http://www.w3.org/2000/svg">
<path d="M13.1225 13.327L14.7379 11.7116C14.9554 11.4967 15.2307 11.3496 15.5303 11.2882C15.8298 11.2267 16.1408 11.2536 16.4254 11.3654L18.3941 12.1515C18.6817 12.2682 18.9283 12.4675 19.1029 12.7242C19.2774 12.9808 19.3721 13.2834 19.3749 13.5938V17.1996C19.3732 17.4107 19.3288 17.6194 19.2444 17.8129C19.16 18.0064 19.0373 18.1809 18.8837 18.3257C18.73 18.4706 18.5487 18.5829 18.3505 18.6558C18.1524 18.7287 17.9415 18.7608 17.7307 18.7501C3.93494 17.8919 1.15128 6.20918 0.624838 1.73801C0.6004 1.51845 0.622729 1.2962 0.690354 1.08588C0.757979 0.875564 0.869369 0.681949 1.0172 0.517773C1.16502 0.353597 1.34593 0.222582 1.54803 0.133345C1.75013 0.0441085 1.96883 -0.00132632 2.18975 2.94729e-05H5.67293C5.98375 0.000949514 6.2872 0.094838 6.54423 0.269619C6.80126 0.444399 7.00012 0.692079 7.11524 0.980802L7.9013 2.94956C8.01687 3.23302 8.04635 3.54425 7.98607 3.84438C7.92579 4.1445 7.77842 4.42021 7.56236 4.63706L5.94697 6.25245C5.94697 6.25245 6.87726 12.5481 13.1225 13.327Z" />
</symbol>

<symbol viewBox="0 0 23 23" id="header__enter" xmlns="http://www.w3.org/2000/svg">
<path d="M1.80675 15.1776C1.22194 15.3995 0.922763 16.0567 1.20106 16.6169C2.19378 18.615 3.75079 20.2892 5.69037 21.4246C7.95702 22.7515 10.6096 23.2625 13.2069 22.8726C15.8043 22.4828 18.1899 21.2156 19.9672 19.2818C21.7445 17.348 22.8062 14.8641 22.976 12.2432C23.1457 9.62222 22.4132 7.02213 20.9002 4.87526C19.3871 2.72839 17.1849 1.16411 14.6595 0.442526C12.1341 -0.279056 9.4378 -0.114455 7.01895 0.908958C4.94913 1.78469 3.18919 3.24411 1.94705 5.09754C1.59882 5.61713 1.81074 6.30741 2.36204 6.60286C2.91335 6.89831 3.59437 6.68584 3.95504 6.17481C4.94393 4.77369 6.30844 3.66905 7.90155 2.99501C9.84398 2.17317 12.0092 2.04099 14.0372 2.62045C16.0651 3.1999 17.8337 4.45608 19.0487 6.18009C20.2637 7.90411 20.8519 9.99207 20.7156 12.0968C20.5793 14.2015 19.7267 16.1962 18.2995 17.7491C16.8723 19.302 14.9565 20.3196 12.8707 20.6326C10.7849 20.9457 8.65486 20.5353 6.83465 19.4698C5.34178 18.5959 4.13115 17.3245 3.33123 15.8076C3.03948 15.2543 2.39155 14.9558 1.80675 15.1776Z" fill="white"/>
<path d="M1.4375 10.6C0.940444 10.6 0.5375 11.0029 0.5375 11.5C0.5375 11.9971 0.940444 12.4 1.4375 12.4L1.4375 10.6ZM16.4489 12.1364C16.8004 11.7849 16.8004 11.2151 16.4489 10.8636L10.7213 5.13604C10.3699 4.78457 9.80001 4.78457 9.44854 5.13604C9.09707 5.48751 9.09707 6.05736 9.44854 6.40883L14.5397 11.5L9.44854 16.5912C9.09707 16.9426 9.09707 17.5125 9.44854 17.864C9.80001 18.2154 10.3699 18.2154 10.7213 17.864L16.4489 12.1364ZM1.4375 12.4L15.8125 12.4V10.6L1.4375 10.6L1.4375 12.4Z" fill="white"/>
</symbol>

<symbol viewBox="0 0 48 47" id="courses__wallet" xmlns="http://www.w3.org/2000/svg">
<path d="M0 43.075C0 36.4 0 29.8 0 23.125C0.3 22.15 1.05 21.625 1.875 21.175C2.175 21.025 2.475 20.875 2.775 20.8C3.15 20.725 3.225 20.5 3.225 20.2C3.225 15.475 3.225 10.825 3.225 6.1C3.225 2.725 5.625 0.25 8.85 0.25C19.95 0.25 31.125 0.25 42.225 0.25C43.8 0.25 44.775 1.225 44.775 2.875C44.775 5.05 44.775 7.225 44.775 9.4C44.775 9.55 44.775 9.775 44.775 9.925C47.025 10.675 48 11.95 48 14.275C48 22 48 29.8 48 37.525C48 37.975 48 38.425 47.85 38.875C47.4 40.675 45.825 41.875 43.8 41.875C37.125 41.875 30.525 41.875 23.85 41.875C23.625 41.875 23.475 41.875 23.25 41.875C23.25 41.95 23.25 41.95 23.25 41.95C23.25 42.025 23.25 42.1 23.25 42.175C23.325 43.3 22.8 44.125 21.825 44.65C21 45.1 20.1 45.475 19.275 45.7C16.875 46.375 14.325 46.6 11.85 46.6C8.925 46.6 6 46.375 3.15 45.4C1.8 45.025 0.525 44.5 0 43.075ZM46.425 21.85C46.425 21.625 46.425 21.475 46.425 21.325C46.425 18.925 46.425 16.525 46.425 14.125C46.425 12.4 45.45 11.425 43.725 11.425C32.175 11.425 20.55 11.425 9 11.425C7.5 11.425 6.15 10.975 5.025 10C4.95 9.925 4.875 9.925 4.8 9.85C4.8 13.3 4.8 16.675 4.8 20.05C4.95 20.05 5.1 20.05 5.25 19.975C9.225 19.15 13.2 19.15 17.25 19.825C18.825 20.05 20.4 20.5 21.825 21.325C22.725 22 23.25 22.75 23.25 23.95C23.175 29.2 23.25 34.375 23.25 39.625C23.25 39.85 23.25 40 23.25 40.225C23.4 40.225 23.55 40.225 23.7 40.225C30.45 40.225 37.125 40.225 43.875 40.225C45.45 40.225 46.5 39.25 46.5 37.6C46.5 35.2 46.5 32.725 46.5 30.325C46.5 30.175 46.5 30.025 46.5 29.875C45.225 29.875 43.95 29.875 42.75 29.875C42.15 29.875 41.55 29.8 40.95 29.575C39.225 28.9 38.25 26.95 38.625 25.15C39 23.275 40.575 21.925 42.45 21.925C43.65 21.85 45 21.85 46.425 21.85ZM43.2 6.625C42.975 6.625 42.75 6.625 42.525 6.625C30.9 6.625 19.2 6.625 7.575 6.625C6.75 6.625 6.375 6.325 6.375 5.8C6.375 5.275 6.75 4.975 7.575 4.975C19.2 4.975 30.9 4.975 42.525 4.975C42.75 4.975 42.9 4.975 43.2 4.975C43.2 4.225 43.2 3.55 43.2 2.95C43.2 2.05 42.975 1.825 42.075 1.825C31.05 1.825 20.1 1.825 9.075 1.825C8.7 1.825 8.325 1.825 8.025 1.9C6 2.35 4.65 4.225 4.8 6.1C5.025 8.2 6.675 9.775 8.775 9.775C20.1 9.775 31.425 9.775 42.825 9.775C42.975 9.775 43.05 9.775 43.2 9.7C43.2 8.8 43.2 7.75 43.2 6.625ZM11.625 21.025C9.375 21.025 7.125 21.175 4.95 21.775C3.975 22.075 3 22.45 2.1 22.9C1.425 23.275 1.425 23.65 2.1 24.025C2.625 24.325 3.15 24.55 3.675 24.775C5.4 25.375 7.125 25.6 8.925 25.75C12.075 25.975 15.225 25.9 18.375 25.15C19.275 24.925 20.175 24.55 21.075 24.1C21.825 23.725 21.825 23.275 21.075 22.825C20.625 22.525 20.1 22.3 19.575 22.15C16.95 21.25 14.325 21.1 11.625 21.025ZM1.575 25.675C1.575 26.35 1.65 27.025 1.575 27.7C1.5 28.3 1.8 28.75 2.325 28.975C3.45 29.35 4.5 29.875 5.7 30.1C8.85 30.775 12 30.775 15.225 30.475C17.025 30.325 18.75 29.95 20.475 29.275C21.3 28.9 21.825 28.45 21.675 27.4C21.6 26.875 21.675 26.275 21.675 25.75C15.15 28.075 7.875 28.075 1.575 25.675ZM1.575 35.275C1.575 36.025 1.65 36.7 1.575 37.375C1.575 37.975 1.8 38.35 2.25 38.5C3.075 38.875 3.9 39.25 4.8 39.475C9 40.525 13.275 40.45 17.55 39.7C18.75 39.475 19.95 39.175 21 38.5C21.225 38.35 21.6 38.125 21.6 37.825C21.675 37 21.6 36.1 21.6 35.2C18.375 36.7 15 37 11.625 37C8.175 37.075 4.8 36.775 1.575 35.275ZM1.575 40.075C1.575 40.825 1.575 41.5 1.575 42.25C1.575 42.775 1.725 43.15 2.175 43.375C3 43.75 3.75 44.125 4.575 44.35C8.85 45.4 13.2 45.4 17.55 44.575C18.675 44.35 19.8 43.825 20.925 43.45C21.15 43.375 21.525 43.075 21.525 42.85C21.6 42.025 21.525 41.125 21.525 40.225C15.225 42.475 7.875 42.475 1.575 40.075ZM21.6 30.475C18.375 31.975 15 32.275 11.625 32.275C8.25 32.275 4.8 31.975 1.65 30.475C1.65 31.3 1.65 32.05 1.65 32.8C1.65 33.175 1.8 33.475 2.1 33.625C2.7 33.925 3.3 34.225 3.9 34.45C5.85 35.125 7.95 35.35 9.975 35.425C12.825 35.575 15.675 35.425 18.45 34.675C19.35 34.45 20.25 34 21.075 33.625C21.3 33.55 21.6 33.175 21.6 32.95C21.6 32.2 21.6 31.375 21.6 30.475ZM46.35 28.225C46.35 26.575 46.35 25 46.35 23.425C44.925 23.425 43.575 23.425 42.225 23.425C41.025 23.5 40.05 24.55 40.05 25.75C40.05 26.95 40.95 28.075 42.15 28.15C43.5 28.3 44.925 28.225 46.35 28.225Z" fill="#CF51CE"/>
</symbol>
</svg>

